<svg xmlns="http://www.w3.org/2000/svg" viewBox="0 0 400 500" width="400" height="500">
  <defs>
    <linearGradient id="bg1" x1="0" y1="0" x2="1" y2="1">
      <stop offset="0" stop-color="#F3C78B"></stop>
      <stop offset="1" stop-color="#E2734A"></stop>
    </linearGradient>
    <pattern id="grain" width="4" height="4" patternUnits="userSpaceOnUse">
      <circle cx="1" cy="1" r="0.4" fill="#fff" opacity="0.06"></circle>
    </pattern>
  </defs>
  <rect width="400" height="500" fill="url(#bg1)"></rect>
  <rect width="400" height="500" fill="url(#grain)"></rect>
  
  <g fill="#1F3B2D" opacity="0.88" transform="translate(80,140)">
    <path d="M40 30 L60 0 L80 30 L160 30 L180 0 L200 30 C225 35 240 65 240 100 C240 180 200 240 120 240 C40 240 0 180 0 100 C0 65 15 35 40 30 Z"></path>
    <circle cx="90" cy="120" r="8" fill="#F7F1E6"></circle>
    <circle cx="150" cy="120" r="8" fill="#F7F1E6"></circle>
    <path d="M115 155 Q120 162 125 155" stroke="#F7F1E6" stroke-width="3" fill="none" stroke-linecap="round"></path>
    <ellipse cx="120" cy="148" rx="6" ry="4" fill="#F4C9B6"></ellipse>
  </g>
  <text x="20" y="480" font-family="Nunito, sans-serif" font-size="12" fill="#1F3B2D" opacity="0.5">placeholder · replace with Pet BOT output</text>
</svg>